<svg class="rich-terminal" viewBox="0 0 1482 782.0" xmlns="http://www.w3.org/2000/svg">
    <!-- Generated with Rich https://www.textualize.io -->
    <style>

    @font-face {
        font-family: "Fira Code";
        src: local("FiraCode-Regular"),
                url("https://cdnjs.cloudflare.com/ajax/libs/firacode/6.2.0/woff2/FiraCode-Regular.woff2") format("woff2"),
                url("https://cdnjs.cloudflare.com/ajax/libs/firacode/6.2.0/woff/FiraCode-Regular.woff") format("woff");
        font-style: normal;
        font-weight: 400;
    }
    @font-face {
        font-family: "Fira Code";
        src: local("FiraCode-Bold"),
                url("https://cdnjs.cloudflare.com/ajax/libs/firacode/6.2.0/woff2/FiraCode-Bold.woff2") format("woff2"),
                url("https://cdnjs.cloudflare.com/ajax/libs/firacode/6.2.0/woff/FiraCode-Bold.woff") format("woff");
        font-style: bold;
        font-weight: 700;
    }

    .terminal-2987909564-matrix {
        font-family: Fira Code, monospace;
        font-size: 20px;
        line-height: 24.4px;
        font-variant-east-asian: full-width;
    }

    .terminal-2987909564-title {
        font-size: 18px;
        font-weight: bold;
        font-family: arial;
    }

    .terminal-2987909564-r1 { fill: #c5c8c6 }
.terminal-2987909564-r2 { fill: #e3e3e3 }
.terminal-2987909564-r3 { fill: #e1e1e1 }
.terminal-2987909564-r4 { fill: #e1e1e1;font-style: italic; }
.terminal-2987909564-r5 { fill: #e1e1e1;font-weight: bold }
.terminal-2987909564-r6 { fill: #e4e5e6 }
.terminal-2987909564-r7 { fill: #98a84b;font-weight: bold }
.terminal-2987909564-r8 { fill: #cc555a;font-weight: bold }
.terminal-2987909564-r9 { fill: #ddedf9 }
.terminal-2987909564-r10 { fill: #14191f }
.terminal-2987909564-r11 { fill: #dde8f3;font-weight: bold }
    </style>

    <defs>
    <clipPath id="terminal-2987909564-clip-terminal">
      <rect x="0" y="0" width="1463.0" height="731.0" />
    </clipPath>
    <clipPath id="terminal-2987909564-line-0">
    <rect x="0" y="1.5" width="1464" height="24.65"/>
            </clipPath>
<clipPath id="terminal-2987909564-line-1">
    <rect x="0" y="25.9" width="1464" height="24.65"/>
            </clipPath>
<clipPath id="terminal-2987909564-line-2">
    <rect x="0" y="50.3" width="1464" height="24.65"/>
            </clipPath>
<clipPath id="terminal-2987909564-line-3">
    <rect x="0" y="74.7" width="1464" height="24.65"/>
            </clipPath>
<clipPath id="terminal-2987909564-line-4">
    <rect x="0" y="99.1" width="1464" height="24.65"/>
            </clipPath>
<clipPath id="terminal-2987909564-line-5">
    <rect x="0" y="123.5" width="1464" height="24.65"/>
            </clipPath>
<clipPath id="terminal-2987909564-line-6">
    <rect x="0" y="147.9" width="1464" height="24.65"/>
            </clipPath>
<clipPath id="terminal-2987909564-line-7">
    <rect x="0" y="172.3" width="1464" height="24.65"/>
            </clipPath>
<clipPath id="terminal-2987909564-line-8">
    <rect x="0" y="196.7" width="1464" height="24.65"/>
            </clipPath>
<clipPath id="terminal-2987909564-line-9">
    <rect x="0" y="221.1" width="1464" height="24.65"/>
            </clipPath>
<clipPath id="terminal-2987909564-line-10">
    <rect x="0" y="245.5" width="1464" height="24.65"/>
            </clipPath>
<clipPath id="terminal-2987909564-line-11">
    <rect x="0" y="269.9" width="1464" height="24.65"/>
            </clipPath>
<clipPath id="terminal-2987909564-line-12">
    <rect x="0" y="294.3" width="1464" height="24.65"/>
            </clipPath>
<clipPath id="terminal-2987909564-line-13">
    <rect x="0" y="318.7" width="1464" height="24.65"/>
            </clipPath>
<clipPath id="terminal-2987909564-line-14">
    <rect x="0" y="343.1" width="1464" height="24.65"/>
            </clipPath>
<clipPath id="terminal-2987909564-line-15">
    <rect x="0" y="367.5" width="1464" height="24.65"/>
            </clipPath>
<clipPath id="terminal-2987909564-line-16">
    <rect x="0" y="391.9" width="1464" height="24.65"/>
            </clipPath>
<clipPath id="terminal-2987909564-line-17">
    <rect x="0" y="416.3" width="1464" height="24.65"/>
            </clipPath>
<clipPath id="terminal-2987909564-line-18">
    <rect x="0" y="440.7" width="1464" height="24.65"/>
            </clipPath>
<clipPath id="terminal-2987909564-line-19">
    <rect x="0" y="465.1" width="1464" height="24.65"/>
            </clipPath>
<clipPath id="terminal-2987909564-line-20">
    <rect x="0" y="489.5" width="1464" height="24.65"/>
            </clipPath>
<clipPath id="terminal-2987909564-line-21">
    <rect x="0" y="513.9" width="1464" height="24.65"/>
            </clipPath>
<clipPath id="terminal-2987909564-line-22">
    <rect x="0" y="538.3" width="1464" height="24.65"/>
            </clipPath>
<clipPath id="terminal-2987909564-line-23">
    <rect x="0" y="562.7" width="1464" height="24.65"/>
            </clipPath>
<clipPath id="terminal-2987909564-line-24">
    <rect x="0" y="587.1" width="1464" height="24.65"/>
            </clipPath>
<clipPath id="terminal-2987909564-line-25">
    <rect x="0" y="611.5" width="1464" height="24.65"/>
            </clipPath>
<clipPath id="terminal-2987909564-line-26">
    <rect x="0" y="635.9" width="1464" height="24.65"/>
            </clipPath>
<clipPath id="terminal-2987909564-line-27">
    <rect x="0" y="660.3" width="1464" height="24.65"/>
            </clipPath>
<clipPath id="terminal-2987909564-line-28">
    <rect x="0" y="684.7" width="1464" height="24.65"/>
            </clipPath>
    </defs>

    <rect fill="#292929" stroke="rgba(255,255,255,0.35)" stroke-width="1" x="1" y="1" width="1480" height="780" rx="8"/><text class="terminal-2987909564-title" fill="#c5c8c6" text-anchor="middle" x="740" y="27">FixCondaSSLApp</text>
            <g transform="translate(26,22)">
            <circle cx="0" cy="0" r="7" fill="#ff5f57"/>
            <circle cx="22" cy="0" r="7" fill="#febc2e"/>
            <circle cx="44" cy="0" r="7" fill="#28c840"/>
            </g>
        
    <g transform="translate(9, 41)" clip-path="url(#terminal-2987909564-clip-terminal)">
    <rect fill="#282828" x="0" y="1.5" width="12.2" height="24.65" shape-rendering="crispEdges"/><rect fill="#282828" x="12.2" y="1.5" width="12.2" height="24.65" shape-rendering="crispEdges"/><rect fill="#282828" x="24.4" y="1.5" width="61" height="24.65" shape-rendering="crispEdges"/><rect fill="#282828" x="85.4" y="1.5" width="12.2" height="24.65" shape-rendering="crispEdges"/><rect fill="#282828" x="97.6" y="1.5" width="524.6" height="24.65" shape-rendering="crispEdges"/><rect fill="#282828" x="622.2" y="1.5" width="170.8" height="24.65" shape-rendering="crispEdges"/><rect fill="#282828" x="793" y="1.5" width="524.6" height="24.65" shape-rendering="crispEdges"/><rect fill="#282828" x="1317.6" y="1.5" width="12.2" height="24.65" shape-rendering="crispEdges"/><rect fill="#282828" x="1329.8" y="1.5" width="0" height="24.65" shape-rendering="crispEdges"/><rect fill="#282828" x="1329.8" y="1.5" width="97.6" height="24.65" shape-rendering="crispEdges"/><rect fill="#282828" x="1427.4" y="1.5" width="12.2" height="24.65" shape-rendering="crispEdges"/><rect fill="#23568b" x="1439.6" y="1.5" width="24.4" height="24.65" shape-rendering="crispEdges"/><rect fill="#1e1e1e" x="0" y="25.9" width="1439.6" height="24.65" shape-rendering="crispEdges"/><rect fill="#23568b" x="1439.6" y="25.9" width="24.4" height="24.65" shape-rendering="crispEdges"/><rect fill="#1e1e1e" x="0" y="50.3" width="24.4" height="24.65" shape-rendering="crispEdges"/><rect fill="#1e1e1e" x="24.4" y="50.3" width="1366.4" height="24.65" shape-rendering="crispEdges"/><rect fill="#1e1e1e" x="1390.8" y="50.3" width="24.4" height="24.65" shape-rendering="crispEdges"/><rect fill="#1e1e1e" x="1415.2" y="50.3" width="24.4" height="24.65" shape-rendering="crispEdges"/><rect fill="#23568b" x="1439.6" y="50.3" width="24.4" height="24.65" shape-rendering="crispEdges"/><rect fill="#1e1e1e" x="0" y="74.7" width="24.4" height="24.65" shape-rendering="crispEdges"/><rect fill="#1e1e1e" x="24.4" y="74.7" width="1390.8" height="24.65" shape-rendering="crispEdges"/><rect fill="#1e1e1e" x="1415.2" y="74.7" width="24.4" height="24.65" shape-rendering="crispEdges"/><rect fill="#23568b" x="1439.6" y="74.7" width="24.4" height="24.65" shape-rendering="crispEdges"/><rect fill="#1e1e1e" x="0" y="99.1" width="24.4" height="24.65" shape-rendering="crispEdges"/><rect fill="#1e1e1e" x="24.4" y="99.1" width="1256.6" height="24.65" shape-rendering="crispEdges"/><rect fill="#1e1e1e" x="1281" y="99.1" width="134.2" height="24.65" shape-rendering="crispEdges"/><rect fill="#1e1e1e" x="1415.2" y="99.1" width="24.4" height="24.65" shape-rendering="crispEdges"/><rect fill="#23568b" x="1439.6" y="99.1" width="24.4" height="24.65" shape-rendering="crispEdges"/><rect fill="#1e1e1e" x="0" y="123.5" width="24.4" height="24.65" shape-rendering="crispEdges"/><rect fill="#1e1e1e" x="24.4" y="123.5" width="488" height="24.65" shape-rendering="crispEdges"/><rect fill="#1e1e1e" x="512.4" y="123.5" width="902.8" height="24.65" shape-rendering="crispEdges"/><rect fill="#1e1e1e" x="1415.2" y="123.5" width="24.4" height="24.65" shape-rendering="crispEdges"/><rect fill="#23568b" x="1439.6" y="123.5" width="24.4" height="24.65" shape-rendering="crispEdges"/><rect fill="#1e1e1e" x="0" y="147.9" width="1439.6" height="24.65" shape-rendering="crispEdges"/><rect fill="#23568b" x="1439.6" y="147.9" width="24.4" height="24.65" shape-rendering="crispEdges"/><rect fill="#1e1e1e" x="0" y="172.3" width="1439.6" height="24.65" shape-rendering="crispEdges"/><rect fill="#23568b" x="1439.6" y="172.3" width="24.4" height="24.65" shape-rendering="crispEdges"/><rect fill="#1e1e1e" x="0" y="196.7" width="24.4" height="24.65" shape-rendering="crispEdges"/><rect fill="#1e1e1e" x="24.4" y="196.7" width="1390.8" height="24.65" shape-rendering="crispEdges"/><rect fill="#1e1e1e" x="1415.2" y="196.7" width="24.4" height="24.65" shape-rendering="crispEdges"/><rect fill="#23568b" x="1439.6" y="196.7" width="24.4" height="24.65" shape-rendering="crispEdges"/><rect fill="#1e1e1e" x="0" y="221.1" width="1439.6" height="24.65" shape-rendering="crispEdges"/><rect fill="#23568b" x="1439.6" y="221.1" width="24.4" height="24.65" shape-rendering="crispEdges"/><rect fill="#34393f" x="0" y="245.5" width="97.6" height="24.65" shape-rendering="crispEdges"/><rect fill="#34393f" x="97.6" y="245.5" width="1342" height="24.65" shape-rendering="crispEdges"/><rect fill="#23568b" x="1439.6" y="245.5" width="24.4" height="24.65" shape-rendering="crispEdges"/><rect fill="#34393f" x="0" y="269.9" width="24.4" height="24.65" shape-rendering="crispEdges"/><rect fill="#34393f" x="24.4" y="269.9" width="48.8" height="24.65" shape-rendering="crispEdges"/><rect fill="#34393f" x="73.2" y="269.9" width="24.4" height="24.65" shape-rendering="crispEdges"/><rect fill="#34393f" x="97.6" y="269.9" width="1342" height="24.65" shape-rendering="crispEdges"/><rect fill="#23568b" x="1439.6" y="269.9" width="24.4" height="24.65" shape-rendering="crispEdges"/><rect fill="#34393f" x="0" y="294.3" width="97.6" height="24.65" shape-rendering="crispEdges"/><rect fill="#34393f" x="97.6" y="294.3" width="1342" height="24.65" shape-rendering="crispEdges"/><rect fill="#23568b" x="1439.6" y="294.3" width="24.4" height="24.65" shape-rendering="crispEdges"/><rect fill="#34393f" x="0" y="318.7" width="183" height="24.65" shape-rendering="crispEdges"/><rect fill="#34393f" x="183" y="318.7" width="109.8" height="24.65" shape-rendering="crispEdges"/><rect fill="#34393f" x="292.8" y="318.7" width="1146.8" height="24.65" shape-rendering="crispEdges"/><rect fill="#23568b" x="1439.6" y="318.7" width="24.4" height="24.65" shape-rendering="crispEdges"/><rect fill="#34393f" x="0" y="343.1" width="24.4" height="24.65" shape-rendering="crispEdges"/><rect fill="#34393f" x="24.4" y="343.1" width="134.2" height="24.65" shape-rendering="crispEdges"/><rect fill="#34393f" x="158.6" y="343.1" width="24.4" height="24.65" shape-rendering="crispEdges"/><rect fill="#34393f" x="183" y="343.1" width="24.4" height="24.65" shape-rendering="crispEdges"/><rect fill="#34393f" x="207.4" y="343.1" width="61" height="24.65" shape-rendering="crispEdges"/><rect fill="#34393f" x="268.4" y="343.1" width="24.4" height="24.65" shape-rendering="crispEdges"/><rect fill="#34393f" x="292.8" y="343.1" width="1146.8" height="24.65" shape-rendering="crispEdges"/><rect fill="#23568b" x="1439.6" y="343.1" width="24.4" height="24.65" shape-rendering="crispEdges"/><rect fill="#34393f" x="0" y="367.5" width="183" height="24.65" shape-rendering="crispEdges"/><rect fill="#34393f" x="183" y="367.5" width="109.8" height="24.65" shape-rendering="crispEdges"/><rect fill="#34393f" x="292.8" y="367.5" width="1146.8" height="24.65" shape-rendering="crispEdges"/><rect fill="#23568b" x="1439.6" y="367.5" width="24.4" height="24.65" shape-rendering="crispEdges"/><rect fill="#34393f" x="0" y="391.9" width="207.4" height="24.65" shape-rendering="crispEdges"/><rect fill="#34393f" x="207.4" y="391.9" width="109.8" height="24.65" shape-rendering="crispEdges"/><rect fill="#34393f" x="317.2" y="391.9" width="1122.4" height="24.65" shape-rendering="crispEdges"/><rect fill="#23568b" x="1439.6" y="391.9" width="24.4" height="24.65" shape-rendering="crispEdges"/><rect fill="#34393f" x="0" y="416.3" width="24.4" height="24.65" shape-rendering="crispEdges"/><rect fill="#34393f" x="24.4" y="416.3" width="158.6" height="24.65" shape-rendering="crispEdges"/><rect fill="#34393f" x="183" y="416.3" width="24.4" height="24.65" shape-rendering="crispEdges"/><rect fill="#34393f" x="207.4" y="416.3" width="24.4" height="24.65" shape-rendering="crispEdges"/><rect fill="#34393f" x="231.8" y="416.3" width="61" height="24.65" shape-rendering="crispEdges"/><rect fill="#34393f" x="292.8" y="416.3" width="24.4" height="24.65" shape-rendering="crispEdges"/><rect fill="#34393f" x="317.2" y="416.3" width="1122.4" height="24.65" shape-rendering="crispEdges"/><rect fill="#23568b" x="1439.6" y="416.3" width="24.4" height="24.65" shape-rendering="crispEdges"/><rect fill="#34393f" x="0" y="440.7" width="207.4" height="24.65" shape-rendering="crispEdges"/><rect fill="#34393f" x="207.4" y="440.7" width="109.8" height="24.65" shape-rendering="crispEdges"/><rect fill="#34393f" x="317.2" y="440.7" width="1122.4" height="24.65" shape-rendering="crispEdges"/><rect fill="#23568b" x="1439.6" y="440.7" width="24.4" height="24.65" shape-rendering="crispEdges"/><rect fill="#34393f" x="0" y="465.1" width="134.2" height="24.65" shape-rendering="crispEdges"/><rect fill="#34393f" x="134.2" y="465.1" width="109.8" height="24.65" shape-rendering="crispEdges"/><rect fill="#34393f" x="244" y="465.1" width="1195.6" height="24.65" shape-rendering="crispEdges"/><rect fill="#23568b" x="1439.6" y="465.1" width="24.4" height="24.65" shape-rendering="crispEdges"/><rect fill="#34393f" x="0" y="489.5" width="24.4" height="24.65" shape-rendering="crispEdges"/><rect fill="#34393f" x="24.4" y="489.5" width="85.4" height="24.65" shape-rendering="crispEdges"/><rect fill="#34393f" x="109.8" y="489.5" width="24.4" height="24.65" shape-rendering="crispEdges"/><rect fill="#34393f" x="134.2" y="489.5" width="24.4" height="24.65" shape-rendering="crispEdges"/><rect fill="#34393f" x="158.6" y="489.5" width="61" height="24.65" shape-rendering="crispEdges"/><rect fill="#34393f" x="219.6" y="489.5" width="24.4" height="24.65" shape-rendering="crispEdges"/><rect fill="#34393f" x="244" y="489.5" width="1195.6" height="24.65" shape-rendering="crispEdges"/><rect fill="#23568b" x="1439.6" y="489.5" width="24.4" height="24.65" shape-rendering="crispEdges"/><rect fill="#34393f" x="0" y="513.9" width="134.2" height="24.65" shape-rendering="crispEdges"/><rect fill="#34393f" x="134.2" y="513.9" width="109.8" height="24.65" shape-rendering="crispEdges"/><rect fill="#34393f" x="244" y="513.9" width="1195.6" height="24.65" shape-rendering="crispEdges"/><rect fill="#23568b" x="1439.6" y="513.9" width="24.4" height="24.65" shape-rendering="crispEdges"/><rect fill="#0178d4" x="0" y="538.3" width="158.6" height="24.65" shape-rendering="crispEdges"/><rect fill="#0178d4" x="158.6" y="538.3" width="109.8" height="24.65" shape-rendering="crispEdges"/><rect fill="#0178d4" x="268.4" y="538.3" width="1171.2" height="24.65" shape-rendering="crispEdges"/><rect fill="#23568b" x="1439.6" y="538.3" width="24.4" height="24.65" shape-rendering="crispEdges"/><rect fill="#0178d4" x="0" y="562.7" width="24.4" height="24.65" shape-rendering="crispEdges"/><rect fill="#0178d4" x="24.4" y="562.7" width="109.8" height="24.65" shape-rendering="crispEdges"/><rect fill="#0178d4" x="134.2" y="562.7" width="24.4" height="24.65" shape-rendering="crispEdges"/><rect fill="#0178d4" x="158.6" y="562.7" width="24.4" height="24.65" shape-rendering="crispEdges"/><rect fill="#0178d4" x="183" y="562.7" width="61" height="24.65" shape-rendering="crispEdges"/><rect fill="#0178d4" x="244" y="562.7" width="24.4" height="24.65" shape-rendering="crispEdges"/><rect fill="#0178d4" x="268.4" y="562.7" width="1171.2" height="24.65" shape-rendering="crispEdges"/><rect fill="#23568b" x="1439.6" y="562.7" width="24.4" height="24.65" shape-rendering="crispEdges"/><rect fill="#0178d4" x="0" y="587.1" width="158.6" height="24.65" shape-rendering="crispEdges"/><rect fill="#0178d4" x="158.6" y="587.1" width="109.8" height="24.65" shape-rendering="crispEdges"/><rect fill="#0178d4" x="268.4" y="587.1" width="1171.2" height="24.65" shape-rendering="crispEdges"/><rect fill="#23568b" x="1439.6" y="587.1" width="24.4" height="24.65" shape-rendering="crispEdges"/><rect fill="#34393f" x="0" y="611.5" width="195.2" height="24.65" shape-rendering="crispEdges"/><rect fill="#34393f" x="195.2" y="611.5" width="1244.4" height="24.65" shape-rendering="crispEdges"/><rect fill="#23568b" x="1439.6" y="611.5" width="24.4" height="24.65" shape-rendering="crispEdges"/><rect fill="#34393f" x="0" y="635.9" width="24.4" height="24.65" shape-rendering="crispEdges"/><rect fill="#34393f" x="24.4" y="635.9" width="146.4" height="24.65" shape-rendering="crispEdges"/><rect fill="#34393f" x="170.8" y="635.9" width="24.4" height="24.65" shape-rendering="crispEdges"/><rect fill="#34393f" x="195.2" y="635.9" width="1244.4" height="24.65" shape-rendering="crispEdges"/><rect fill="#23568b" x="1439.6" y="635.9" width="24.4" height="24.65" shape-rendering="crispEdges"/><rect fill="#34393f" x="0" y="660.3" width="195.2" height="24.65" shape-rendering="crispEdges"/><rect fill="#34393f" x="195.2" y="660.3" width="1244.4" height="24.65" shape-rendering="crispEdges"/><rect fill="#23568b" x="1439.6" y="660.3" width="24.4" height="24.65" shape-rendering="crispEdges"/><rect fill="#34393f" x="0" y="684.7" width="134.2" height="24.65" shape-rendering="crispEdges"/><rect fill="#34393f" x="134.2" y="684.7" width="1305.4" height="24.65" shape-rendering="crispEdges"/><rect fill="#23568b" x="1439.6" y="684.7" width="24.4" height="24.65" shape-rendering="crispEdges"/><rect fill="#0053aa" x="0" y="709.1" width="36.6" height="24.65" shape-rendering="crispEdges"/><rect fill="#0178d4" x="36.6" y="709.1" width="73.2" height="24.65" shape-rendering="crispEdges"/><rect fill="#0178d4" x="109.8" y="709.1" width="24.4" height="24.65" shape-rendering="crispEdges"/><rect fill="#0178d4" x="134.2" y="709.1" width="1305.4" height="24.65" shape-rendering="crispEdges"/><rect fill="#14191f" x="1439.6" y="709.1" width="24.4" height="24.65" shape-rendering="crispEdges"/>
    <g class="terminal-2987909564-matrix">
    <text class="terminal-2987909564-r2" x="12.2" y="20" textLength="12.2" clip-path="url(#terminal-2987909564-line-0)">⭘</text><text class="terminal-2987909564-r2" x="622.2" y="20" textLength="170.8" clip-path="url(#terminal-2987909564-line-0)">FixCondaSSLApp</text><text class="terminal-2987909564-r1" x="1464" y="20" textLength="12.2" clip-path="url(#terminal-2987909564-line-0)">
</text><text class="terminal-2987909564-r1" x="1464" y="44.4" textLength="12.2" clip-path="url(#terminal-2987909564-line-1)">
</text><text class="terminal-2987909564-r4" x="24.4" y="68.8" textLength="1366.4" clip-path="url(#terminal-2987909564-line-2)">It&#160;is&#160;that&#160;time&#160;of&#160;year&#160;again:&#160;conda&#160;environments&#160;are&#160;broken&#160;because&#160;of&#160;SSL&#160;library&#160;problems.&#160;In&#160;my&#160;experience,&#160;</text><text class="terminal-2987909564-r1" x="1464" y="68.8" textLength="12.2" clip-path="url(#terminal-2987909564-line-2)">
</text><text class="terminal-2987909564-r4" x="24.4" y="93.2" textLength="1390.8" clip-path="url(#terminal-2987909564-line-3)">this&#160;is&#160;the&#160;case&#160;on&#160;Windows&#160;in&#160;either&#160;the&#160;base&#160;channel&#160;or&#160;conda-forge,&#160;every&#160;Fall&#160;for&#160;the&#160;past&#160;few&#160;years.&#160;I&#160;know,&#160;</text><text class="terminal-2987909564-r1" x="1464" y="93.2" textLength="12.2" clip-path="url(#terminal-2987909564-line-3)">
</text><text class="terminal-2987909564-r4" x="24.4" y="117.6" textLength="1256.6" clip-path="url(#terminal-2987909564-line-4)">because&#160;I&#x27;m&#160;teaching&#160;a&#160;Fall&#160;coding&#160;course&#160;and&#160;my&#160;students&#160;can&#x27;t&#160;install&#160;packages&#160;or&#160;use&#160;pipx-installed&#160;</text><text class="terminal-2987909564-r1" x="1464" y="117.6" textLength="12.2" clip-path="url(#terminal-2987909564-line-4)">
</text><text class="terminal-2987909564-r4" x="24.4" y="142" textLength="488" clip-path="url(#terminal-2987909564-line-5)">applications.&#160;Almost.&#160;Every.&#160;Year.&#160;Sigh.</text><text class="terminal-2987909564-r1" x="1464" y="142" textLength="12.2" clip-path="url(#terminal-2987909564-line-5)">
</text><text class="terminal-2987909564-r1" x="1464" y="166.4" textLength="12.2" clip-path="url(#terminal-2987909564-line-6)">
</text><text class="terminal-2987909564-r1" x="1464" y="190.8" textLength="12.2" clip-path="url(#terminal-2987909564-line-7)">
</text><text class="terminal-2987909564-r5" x="24.4" y="215.2" textLength="1390.8" clip-path="url(#terminal-2987909564-line-8)">&#160;&#160;&#160;&#160;&#160;&#160;&#160;&#160;&#160;&#160;&#160;&#160;&#160;&#160;&#160;&#160;&#160;&#160;&#160;&#160;&#160;&#160;&#160;&#160;&#160;&#160;&#160;&#160;&#160;&#160;&#160;&#160;&#160;&#160;&#160;&#160;&#160;&#160;&#160;&#160;&#160;Select&#160;an&#160;environment&#160;to&#160;fix&#160;SSL&#160;&#160;&#160;&#160;&#160;&#160;&#160;&#160;&#160;&#160;&#160;&#160;&#160;&#160;&#160;&#160;&#160;&#160;&#160;&#160;&#160;&#160;&#160;&#160;&#160;&#160;&#160;&#160;&#160;&#160;&#160;&#160;&#160;&#160;&#160;&#160;&#160;&#160;&#160;&#160;&#160;</text><text class="terminal-2987909564-r1" x="1464" y="215.2" textLength="12.2" clip-path="url(#terminal-2987909564-line-8)">
</text><text class="terminal-2987909564-r1" x="1464" y="239.6" textLength="12.2" clip-path="url(#terminal-2987909564-line-9)">
</text><text class="terminal-2987909564-r1" x="1464" y="264" textLength="12.2" clip-path="url(#terminal-2987909564-line-10)">
</text><text class="terminal-2987909564-r6" x="24.4" y="288.4" textLength="48.8" clip-path="url(#terminal-2987909564-line-11)">base</text><text class="terminal-2987909564-r1" x="1464" y="288.4" textLength="12.2" clip-path="url(#terminal-2987909564-line-11)">
</text><text class="terminal-2987909564-r1" x="1464" y="312.8" textLength="12.2" clip-path="url(#terminal-2987909564-line-12)">
</text><text class="terminal-2987909564-r1" x="1464" y="337.2" textLength="12.2" clip-path="url(#terminal-2987909564-line-13)">
</text><text class="terminal-2987909564-r6" x="24.4" y="361.6" textLength="134.2" clip-path="url(#terminal-2987909564-line-14)">ecpcgrading</text><text class="terminal-2987909564-r7" x="207.4" y="361.6" textLength="61" clip-path="url(#terminal-2987909564-line-14)">Fixed</text><text class="terminal-2987909564-r1" x="1464" y="361.6" textLength="12.2" clip-path="url(#terminal-2987909564-line-14)">
</text><text class="terminal-2987909564-r1" x="1464" y="386" textLength="12.2" clip-path="url(#terminal-2987909564-line-15)">
</text><text class="terminal-2987909564-r1" x="1464" y="410.4" textLength="12.2" clip-path="url(#terminal-2987909564-line-16)">
</text><text class="terminal-2987909564-r6" x="24.4" y="434.8" textLength="158.6" clip-path="url(#terminal-2987909564-line-17)">fix-conda-ssl</text><text class="terminal-2987909564-r8" x="231.8" y="434.8" textLength="61" clip-path="url(#terminal-2987909564-line-17)">Error</text><text class="terminal-2987909564-r1" x="1464" y="434.8" textLength="12.2" clip-path="url(#terminal-2987909564-line-17)">
</text><text class="terminal-2987909564-r1" x="1464" y="459.2" textLength="12.2" clip-path="url(#terminal-2987909564-line-18)">
</text><text class="terminal-2987909564-r1" x="1464" y="483.6" textLength="12.2" clip-path="url(#terminal-2987909564-line-19)">
</text><text class="terminal-2987909564-r6" x="24.4" y="508" textLength="85.4" clip-path="url(#terminal-2987909564-line-20)">grading</text><text class="terminal-2987909564-r7" x="158.6" y="508" textLength="61" clip-path="url(#terminal-2987909564-line-20)">Fixed</text><text class="terminal-2987909564-r1" x="1464" y="508" textLength="12.2" clip-path="url(#terminal-2987909564-line-20)">
</text><text class="terminal-2987909564-r1" x="1464" y="532.4" textLength="12.2" clip-path="url(#terminal-2987909564-line-21)">
</text><text class="terminal-2987909564-r1" x="1464" y="556.8" textLength="12.2" clip-path="url(#terminal-2987909564-line-22)">
</text><text class="terminal-2987909564-r9" x="24.4" y="581.2" textLength="109.8" clip-path="url(#terminal-2987909564-line-23)">pythondaq</text><text class="terminal-2987909564-r7" x="183" y="581.2" textLength="61" clip-path="url(#terminal-2987909564-line-23)">Fixed</text><text class="terminal-2987909564-r1" x="1464" y="581.2" textLength="12.2" clip-path="url(#terminal-2987909564-line-23)">
</text><text class="terminal-2987909564-r1" x="1464" y="605.6" textLength="12.2" clip-path="url(#terminal-2987909564-line-24)">
</text><text class="terminal-2987909564-r1" x="1464" y="630" textLength="12.2" clip-path="url(#terminal-2987909564-line-25)">
</text><text class="terminal-2987909564-r6" x="24.4" y="654.4" textLength="146.4" clip-path="url(#terminal-2987909564-line-26)">test_install</text><text class="terminal-2987909564-r1" x="1464" y="654.4" textLength="12.2" clip-path="url(#terminal-2987909564-line-26)">
</text><text class="terminal-2987909564-r1" x="1464" y="678.8" textLength="12.2" clip-path="url(#terminal-2987909564-line-27)">
</text><text class="terminal-2987909564-r10" x="1439.6" y="703.2" textLength="24.4" clip-path="url(#terminal-2987909564-line-28)">▇▇</text><text class="terminal-2987909564-r1" x="1464" y="703.2" textLength="12.2" clip-path="url(#terminal-2987909564-line-28)">
</text><text class="terminal-2987909564-r11" x="0" y="727.6" textLength="36.6" clip-path="url(#terminal-2987909564-line-29)">&#160;Q&#160;</text><text class="terminal-2987909564-r9" x="36.6" y="727.6" textLength="73.2" clip-path="url(#terminal-2987909564-line-29)">&#160;Quit&#160;</text>
    </g>
    </g>
</svg>
